<svg fill="none" height="64" viewBox="0 0 316 64" width="316" xmlns="http://www.w3.org/2000/svg"><g fill="#1ba1be"><path d="m23.8135 63.7942c-.1715 0-.2916-.0772-.3602-.2315l-3.2157-7.126c-.0343-.0686-.0857-.103-.1543-.103h-2.3925c-.0858 0-.1287.0429-.1287.1287v7.0231c0 .0858-.0343.1629-.1029.2315-.0514.0515-.12.0772-.2058.0772h-3.0099c-.0857 0-.1629-.0257-.2315-.0772-.0515-.0686-.0772-.1457-.0772-.2315v-17.3906c0-.0858.0257-.1544.0772-.2058.0686-.0686.1458-.1029.2315-.1029h7.3576c1.0976 0 2.0581.2229 2.8813.6689.8404.4459 1.4835 1.0804 1.9294 1.9037.4631.8232.6946 1.775.6946 2.8555 0 1.1663-.2916 2.1696-.8747 3.0099-.5831.8233-1.3977 1.4064-2.4439 1.7494-.0858.0343-.1115.0943-.0772.1801l3.4987 7.2804c.0343.0686.0515.12.0515.1543 0 .1372-.0944.2058-.283.2058zm-6.1227-14.8952c-.0858 0-.1287.0429-.1287.1286v4.3991c0 .0858.0429.1287.1287.1287h3.37c.7204 0 1.3035-.2144 1.7494-.6432.4631-.4287.6946-.9861.6946-1.6722 0-.686-.2315-1.2434-.6946-1.6721-.4459-.4459-1.029-.6689-1.7494-.6689z"/><path d="m46.0986 48.5903c0 .0857-.0343.1629-.1029.2315-.0514.0515-.12.0772-.2058.0772h-8.438c-.0858 0-.1286.0429-.1286.1286v3.9875c0 .0858.0428.1287.1286.1287h5.531c.0858 0 .1544.0343.2058.1029.0686.0514.1029.12.1029.2058v2.4954c0 .0857-.0343.1629-.1029.2315-.0514.0514-.12.0772-.2058.0772h-5.531c-.0858 0-.1286.0428-.1286.1286v4.1676c0 .0857.0428.1286.1286.1286h8.438c.0858 0 .1544.0343.2058.1029.0686.0515.1029.1201.1029.2058v2.4954c0 .0858-.0343.1629-.1029.2315-.0514.0515-.12.0772-.2058.0772h-11.8853c-.0857 0-.1629-.0257-.2315-.0772-.0514-.0686-.0772-.1457-.0772-.2315v-17.3906c0-.0858.0258-.1544.0772-.2058.0686-.0686.1458-.1029.2315-.1029h11.8853c.0858 0 .1544.0343.2058.1029.0686.0514.1029.12.1029.2058z"/><path d="m58.8068 64c-1.3378 0-2.5126-.2572-3.5245-.7717-1.0118-.5317-1.7922-1.2692-2.341-2.2125-.5488-.9432-.8232-2.0323-.8232-3.2671v-5.9427c0-1.2348.2744-2.3239.8232-3.2672.5488-.9432 1.3292-1.6721 2.341-2.1866 1.0119-.5146 2.1867-.7718 3.5245-.7718 1.3206 0 2.4782.2487 3.4729.746 1.0119.4802 1.7923 1.1748 2.3411 2.0838.566.8918.8489 1.9294.8489 3.1128 0 .1544-.1029.2487-.3087.283l-3.0099.1801h-.0514c-.1715 0-.2573-.0943-.2573-.283 0-.909-.283-1.6379-.8489-2.1867-.5489-.5488-1.2778-.8232-2.1867-.8232-.9262 0-1.6722.2744-2.2382.8232-.5488.5488-.8232 1.2777-.8232 2.1867v6.1999c0 .8918.2744 1.6122.8232 2.161.566.5488 1.312.8232 2.2382.8232.9089 0 1.6378-.2744 2.1867-.8232.5659-.5488.8489-1.2692.8489-2.161 0-.1886.1029-.283.3087-.283l3.0099.1287c.0858 0 .1544.0257.2058.0771.0686.0515.1029.1115.1029.1801 0 1.1834-.2829 2.2296-.8489 3.1386-.5488.9089-1.3292 1.6121-2.3411 2.1095-.9947.4973-2.1523.746-3.4729.746z"/><path d="m81.8673 63.7942c-.1715 0-.2916-.0772-.3602-.2315l-3.2157-7.126c-.0343-.0686-.0857-.103-.1543-.103h-2.3925c-.0858 0-.1287.0429-.1287.1287v7.0231c0 .0858-.0343.1629-.1029.2315-.0514.0515-.12.0772-.2058.0772h-3.0099c-.0857 0-.1629-.0257-.2315-.0772-.0515-.0686-.0772-.1457-.0772-.2315v-17.3906c0-.0858.0257-.1544.0772-.2058.0686-.0686.1458-.1029.2315-.1029h7.3576c1.0976 0 2.058.2229 2.8813.6689.8403.4459 1.4835 1.0804 1.9294 1.9037.4631.8232.6946 1.775.6946 2.8555 0 1.1663-.2916 2.1696-.8747 3.0099-.5831.8233-1.3977 1.4064-2.4439 1.7494-.0858.0343-.1115.0943-.0772.1801l3.4987 7.2804c.0343.0686.0515.12.0515.1543 0 .1372-.0944.2058-.283.2058zm-6.1227-14.8952c-.0858 0-.1287.0429-.1287.1286v4.3991c0 .0858.0429.1287.1287.1287h3.37c.7204 0 1.3035-.2144 1.7494-.6432.4631-.4287.6946-.9861.6946-1.6722 0-.686-.2315-1.2434-.6946-1.6721-.4459-.4459-1.029-.6689-1.7494-.6689z"/><path d="m98.1841 64c-1.3206 0-2.4869-.2572-3.4987-.7717-.9948-.5146-1.7751-1.2349-2.3411-2.161-.5488-.9433-.8232-2.0238-.8232-3.2415v-11.7309c0-.0858.0257-.1544.0772-.2058.0686-.0686.1458-.1029.2315-.1029h3.0099c.0858 0 .1544.0343.2058.1029.0686.0514.1029.12.1029.2058v11.7567c0 .9089.2744 1.6464.8232 2.2124.566.5488 1.3035.8232 2.2125.8232.9089 0 1.6378-.2744 2.1869-.8232.566-.566.849-1.3035.849-2.2124v-11.7567c0-.0858.025-.1544.077-.2058.068-.0686.146-.1029.231-.1029h3.01c.086 0 .155.0343.206.1029.069.0514.103.12.103.2058v11.7309c0 1.2177-.283 2.2982-.849 3.2415-.549.9261-1.329 1.6464-2.341 2.161-.995.5145-2.1524.7717-3.4729.7717z"/><path d="m111.996 63.7942c-.085 0-.163-.0257-.231-.0772-.052-.0686-.077-.1457-.077-.2315v-17.3906c0-.0858.025-.1544.077-.2058.068-.0686.146-.1029.231-.1029h3.01c.086 0 .155.0343.206.1029.069.0514.103.12.103.2058v17.3906c0 .0858-.034.1629-.103.2315-.051.0515-.12.0772-.206.0772z"/><path d="m134.73 45.7862c.086 0 .154.0343.206.1029.069.0514.103.12.103.2058v2.5211c0 .0858-.034.163-.103.2316-.052.0514-.12.0771-.206.0771h-4.605c-.086 0-.128.0429-.128.1287v14.4321c0 .0858-.035.1629-.103.2315-.052.0515-.12.0772-.206.0772h-3.01c-.086 0-.163-.0257-.232-.0772-.051-.0686-.077-.1457-.077-.2315v-14.4321c0-.0858-.043-.1287-.128-.1287h-4.477c-.085 0-.163-.0257-.231-.0771-.052-.0686-.077-.1458-.077-.2316v-2.5211c0-.0858.025-.1544.077-.2058.068-.0686.146-.1029.231-.1029z"/><path d="m152.789 45.992c.085-.1372.205-.2058.36-.2058h3.01c.085 0 .154.0343.205.1029.069.0514.103.12.103.2058v17.3906c0 .0858-.034.1629-.103.2315-.051.0515-.12.0772-.205.0772h-3.01c-.086 0-.163-.0257-.232-.0772-.051-.0686-.077-.1457-.077-.2315v-11.345c0-.0687-.017-.103-.051-.103-.035 0-.069.0258-.103.0772l-2.727 4.2705c-.086.1372-.206.2058-.36.2058h-1.518c-.155 0-.275-.0686-.36-.2058l-2.727-4.2705c-.035-.0514-.069-.0686-.103-.0514-.035 0-.052.0343-.052.1029v11.3193c0 .0858-.034.1629-.103.2315-.051.0515-.12.0772-.205.0772h-3.01c-.086 0-.163-.0257-.232-.0772-.051-.0686-.077-.1457-.077-.2315v-17.3906c0-.0858.026-.1544.077-.2058.069-.0686.146-.1029.232-.1029h3.01c.154 0 .274.0686.36.2058l3.859 5.9941c.051.1029.103.1029.154 0z"/><path d="m175.963 48.5903c0 .0857-.034.1629-.102.2315-.052.0515-.12.0772-.206.0772h-8.438c-.086 0-.129.0429-.129.1286v3.9875c0 .0858.043.1287.129.1287h5.531c.086 0 .154.0343.206.1029.068.0514.102.12.102.2058v2.4954c0 .0857-.034.1629-.102.2315-.052.0514-.12.0772-.206.0772h-5.531c-.086 0-.129.0428-.129.1286v4.1676c0 .0857.043.1286.129.1286h8.438c.086 0 .154.0343.206.1029.068.0515.102.1201.102.2058v2.4954c0 .0858-.034.1629-.102.2315-.052.0515-.12.0772-.206.0772h-11.886c-.085 0-.162-.0257-.231-.0772-.052-.0686-.077-.1457-.077-.2315v-17.3906c0-.0858.025-.1544.077-.2058.069-.0686.146-.1029.231-.1029h11.886c.086 0 .154.0343.206.1029.068.0514.102.12.102.2058z"/><path d="m192.685 46.0949c0-.0858.026-.1544.077-.2058.069-.0686.146-.1029.232-.1029h3.009c.086 0 .155.0343.206.1029.069.0514.103.12.103.2058v17.3906c0 .0858-.034.1629-.103.2315-.051.0515-.12.0772-.206.0772h-2.907c-.171 0-.291-.0686-.36-.2058l-6.663-11.0106c-.034-.0515-.068-.0686-.103-.0515-.034 0-.051.0343-.051.1029l.051 10.8563c0 .0858-.034.1629-.103.2315-.051.0515-.12.0772-.205.0772h-3.01c-.086 0-.163-.0257-.232-.0772-.051-.0686-.077-.1457-.077-.2315v-17.3906c0-.0858.026-.1544.077-.2058.069-.0686.146-.1029.232-.1029h2.907c.171 0 .291.0686.36.2058l6.637 10.9592c.034.0514.069.0771.103.0771.034-.0171.052-.06.052-.1286z"/><path d="m215.736 45.7862c.086 0 .154.0343.206.1029.069.0514.103.12.103.2058v2.5211c0 .0858-.034.163-.103.2316-.052.0514-.12.0771-.206.0771h-4.605c-.086 0-.128.0429-.128.1287v14.4321c0 .0858-.035.1629-.103.2315-.052.0515-.12.0772-.206.0772h-3.01c-.086 0-.163-.0257-.232-.0772-.051-.0686-.077-.1457-.077-.2315v-14.4321c0-.0858-.043-.1287-.128-.1287h-4.477c-.085 0-.163-.0257-.231-.0771-.052-.0686-.077-.1458-.077-.2316v-2.5211c0-.0858.025-.1544.077-.2058.068-.0686.146-.1029.231-.1029z"/><path d="m243.653 45.7862c.085 0 .154.0343.205.1029.069.0514.103.12.103.2058v2.5211c0 .0858-.034.163-.103.2316-.051.0514-.12.0771-.205.0771h-4.605c-.086 0-.129.0429-.129.1287v14.4321c0 .0858-.034.1629-.103.2315-.051.0515-.12.0772-.206.0772h-3.01c-.085 0-.163-.0257-.231-.0772-.052-.0686-.077-.1457-.077-.2315v-14.4321c0-.0858-.043-.1287-.129-.1287h-4.476c-.086 0-.163-.0257-.232-.0771-.051-.0686-.077-.1458-.077-.2316v-2.5211c0-.0858.026-.1544.077-.2058.069-.0686.146-.1029.232-.1029z"/><path d="m259.924 63.7942c-.171 0-.283-.0857-.334-.2572l-.772-2.5212c-.034-.0686-.077-.1029-.129-.1029h-6.328c-.052 0-.094.0343-.129.1029l-.746 2.5212c-.051.1715-.163.2572-.334.2572h-3.267c-.103 0-.18-.0257-.232-.0772-.051-.0686-.06-.1629-.026-.2829l5.557-17.3907c.052-.1715.163-.2572.335-.2572h4.039c.171 0 .283.0857.334.2572l5.557 17.3907c.017.0343.025.0771.025.1286 0 .1543-.094.2315-.283.2315zm-6.766-5.8397c-.017.1029.018.1543.103.1543h4.528c.103 0 .137-.0514.103-.1543l-2.315-7.6406c-.018-.0686-.043-.0943-.078-.0772-.034 0-.06.0258-.077.0772z"/><path d="m274.638 64c-1.372 0-2.572-.2144-3.601-.6431-1.029-.4459-1.827-1.0719-2.393-1.878-.549-.8232-.823-1.7751-.823-2.8556v-.5659c0-.0858.026-.1544.077-.2058.069-.0686.146-.1029.232-.1029h2.932c.086 0 .155.0343.206.1029.069.0514.103.12.103.2058v.3859c0 .686.317 1.2691.952 1.7493.634.4631 1.492.6946 2.573.6946.908 0 1.586-.1886 2.032-.566.446-.3944.669-.8746.669-1.4406 0-.4116-.137-.7546-.412-1.029-.274-.2916-.652-.5403-1.132-.7461-.463-.2229-1.209-.5231-2.238-.9004-1.149-.3944-2.127-.7975-2.933-1.2091-.789-.4116-1.458-.969-2.006-1.6722-.532-.7203-.798-1.6035-.798-2.6497 0-1.029.266-1.9294.798-2.7012.531-.7718 1.269-1.3635 2.212-1.7751s2.032-.6174 3.267-.6174c1.304 0 2.461.2315 3.473.6946 1.029.463 1.827 1.1148 2.393 1.9551.583.8233.874 1.7837.874 2.8813v.3859c0 .0858-.034.1629-.102.2315-.052.0515-.121.0772-.206.0772h-2.959c-.086 0-.163-.0257-.231-.0772-.052-.0686-.077-.1457-.077-.2315v-.2058c0-.7203-.301-1.3292-.901-1.8265-.583-.5145-1.389-.7718-2.418-.7718-.806 0-1.441.1715-1.904.5145-.446.343-.669.8147-.669 1.4149 0 .4288.129.789.386 1.0805.275.2916.669.5574 1.184.7975.531.223 1.346.5317 2.444.9261 1.217.446 2.169.8404 2.855 1.1834.703.343 1.329.8575 1.878 1.5436.566.6688.849 1.5435.849 2.624 0 1.6121-.592 2.8899-1.775 3.8331-1.183.9262-2.787 1.3892-4.811 1.3892z"/><path d="m287.931 63.7942c-.085 0-.163-.0257-.231-.0772-.052-.0686-.077-.1457-.077-.2315v-17.3906c0-.0858.025-.1544.077-.2058.068-.0686.146-.1029.231-.1029h3.01c.086 0 .155.0343.206.1029.069.0514.103.12.103.2058v7.2032c0 .0515.017.0858.051.1029.035 0 .069-.0171.103-.0514l5.943-7.3833c.103-.1201.232-.1801.386-.1801h3.396c.137 0 .223.0429.257.1286.034.0686.017.1544-.051.2573l-5.737 7.3318c-.052.0686-.06.1286-.026.1801l6.071 9.7501c.035.1029.052.1629.052.18 0 .1201-.086.1801-.258.1801h-3.395c-.172 0-.292-.0686-.361-.2058l-4.579-7.409c-.017-.0343-.043-.0515-.077-.0515s-.068.0172-.103.0515l-1.621 2.0323c-.034.0686-.051.1201-.051.1544v5.1194c0 .0858-.034.1629-.103.2315-.051.0515-.12.0772-.206.0772z"/><path d="m0 37.4224 14.5403-26.0617h-6.96494l6.44844-11.061323h34.2613l-4.9772 11.061323h-17.8428l-2.2069 4.27h11.7074l-3.0677 6.4761h-11.9891l-7.9197 15.3314h-11.9891z"/><path d="m31.8978 37.4224 16.7003-37.123023h20.9417c2.4886.267866 4.3355 1.055703 5.5564 2.363523 1.2364 1.30781 1.8938 3.05682 1.9564 5.24701-.4695 3.29319-1.2678 5.82999-2.4103 7.61049-1.1583 1.7806-2.6608 3.2775-4.492 4.475-1.8469 1.1975-4.2573 2.1429-7.2154 2.8362l1.3617 3.5453h18.9384l-3.1616 11.0613h-23.1957l-6.7145-12.2588-4.9615 12.2588h-13.3039zm24.5886-27.87378-2.7703 6.85418h8.6084c.4539 0 1.0173-.1891 1.6903-.5515.6731-.3624 1.2991-1.292 1.8626-2.7889.4382-1.4181.4695-2.3635.0939-2.8205-.3756-.45693-.7513-.67752-1.1269-.67752h-8.358z"/><path d="m121.065 19.0657c-.642 4.0653-1.988 7.5318-4.085 10.3838-2.129 2.8677-4.899 5.0106-8.327 6.4603-3.459 1.4338-7.419 2.1586-11.8481 2.1586-4.4294 0-8.0449-.7248-10.8152-2.1744-2.7547-1.4496-4.5077-3.5925-5.2903-6.4288-.7356-2.8362-.4852-6.3027.7513-10.3995.9391-3.1041 2.1756-5.83 3.7407-8.1935 1.5339-2.36353 3.3495-4.34888 5.4155-5.95608 2.0503-1.60719 4.3198-2.83622 6.8397-3.67133 2.5043-.835113 5.1964-1.24479 8.0914-1.24479 3.835 0 7.012.74057 9.532 2.20595 2.551 1.46539 4.336 3.62407 5.369 6.47605 1.033 2.8677 1.252 6.3185.626 10.3837zm-27.3904.1103c-.6104 2.3793-.6417 4.4592-.0626 6.224.5791 1.7647 2.3947 2.6471 5.4154 2.6471 2.3326 0 4.1786-.4569 5.5406-1.3866 1.346-.9296 2.285-1.9853 2.802-3.1829.516-1.1975 1.001-2.6313 1.44-4.3016.391-2.3792.281-4.4591-.313-6.2397-.579-1.7805-2.379-2.6629-5.4-2.6629-4.7739 0-7.9042 2.9623-9.4224 8.9026z"/><path d="m123.46 37.4224 3.631-26.0617h-6.965l1.831-11.061323h17.154l8.734 13.881723.845-13.881723h10.471l-.767 37.123023h-11.974l-9.594-13.8817-1.362 13.8817z"/><path d="m187.866.299377 1.001 11.061323h-10.643l1.331 26.0775h-11.974l-.281-26.0775h-10.644l.329-11.061323z"/><path d="m184.407 27.732-.642-9.2493h13.695l1.111 9.2493z"/><path d="m202.484 37.4224-3.349-26.0617h-6.965l-1.143-11.061323h34.262l2.598 11.061323h-17.843l.72 4.27h11.707l1.378 6.4761h-11.989l.72 4.2701h21.833l2.724 11.0613h-34.653z"/><path d="m237.09 37.4224-9.141-37.123023h10.471l14.071 13.881723-4.492-13.881723h19.377l4.414 11.061323h-9.298l9.501 26.0775h-11.973l-14.948-13.8818 3.976 13.8818h-11.958z"/><path d="m281.838 37.4224-10.377-26.0617h-6.965l-4.116-11.061323h25.668c2.567 0 5.024.393921 7.388 1.181763 2.363.78784 4.586 1.84354 6.636 3.18287 2.066 1.33933 4.179 3.15136 6.307 5.42039 2.145 2.2847 4.211 5.247 6.167 8.9025 1.628 3.372 2.63 6.2555 2.99 8.619.344 2.3635.109 4.2386-.705 5.6094-.829 1.3709-2.16 2.4266-4.006 3.1829-1.863.7563-4.492 1.103-7.889 1.0242zm.015-27.92105 8.202 18.67185h6.793c1.534 0 2.598-.3309 3.224-1.0085.61-.6775.955-1.5441 1.033-2.5998s-.485-2.9466-1.659-5.6883c-1.268-2.5053-2.489-4.3488-3.647-5.5463-1.158-1.1976-2.363-2.1272-3.6-2.8048-1.236-.6775-2.582-1.00839-4.038-1.00839h-6.308z"/></g></svg>